<svg xmlns="http://www.w3.org/2000/svg" xmlns:xlink="http://www.w3.org/1999/xlink" x="0px" y="0px" viewBox="0 0 32 32">
  <defs>
    <path id="a" d="M0 0h32v32H0z"/>
  </defs>
  <clipPath id="b">
    <use xlink:href="#a" overflow="visible"/>
  </clipPath>
  <g clip-path="url(#b)">
    <linearGradient id="c" gradientUnits="userSpaceOnUse" x1="29.92" y1="-284.64" x2="4.32" y2="-259.04" gradientTransform="matrix(1 0 0 -1 0 -254.72)">
      <stop offset="0.1594" stop-color="#003cda"/>
      <stop offset="1" stop-color="#33dfcc"/>
    </linearGradient>
    <path fill="url(#c)" d="M16 6.2c1.9 0 3.8.6 5.5 1.7 1.6 1.1 2.9 2.6 3.6 4.4.7 1.8.9 3.8.6 5.7-.4 1.9-1.3 3.7-2.7 5s-3.1 2.3-5 2.7c-2 .3-4 .1-5.8-.6-1.8-.7-3.3-2-4.4-3.6C6.7 19.9 6.1 18 6.1 16c0-2.6 1-5.1 2.9-6.9 1.9-1.9 4.4-2.9 7-2.9zM16 0c-3.2 0-6.3.9-8.9 2.7C4.5 4.5 2.4 7 1.2 9.9 0 12.8-.3 16 .3 19.1c.6 3.1 2.1 6 4.4 8.2s5.1 3.8 8.2 4.4c3.1.6 6.3.3 9.2-.9 2.9-1.2 5.4-3.3 7.2-5.9 1.8-2.6 2.7-5.7 2.7-8.9 0-4.2-1.7-8.3-4.7-11.3S20.2 0 16 0z"/>
    <path fill="#FFF" d="M16 28.5c6.9 0 12.5-5.6 12.5-12.5S22.9 3.5 16 3.5 3.5 9.1 3.5 16 9.1 28.5 16 28.5z"/>
    <linearGradient id="d" gradientUnits="userSpaceOnUse" x1="24.7" y1="-279.42" x2="8.7" y2="-263.42" gradientTransform="matrix(1 0 0 -1 0 -254.72)">
      <stop offset="0.1594" stop-color="#003cda"/>
      <stop offset="1" stop-color="#33dfcc"/>
    </linearGradient>
    <path fill="url(#d)" d="M6 16c0-5.5 4.5-10 10-10s10 4.5 10 10-4.5 10-10 10S6 21.5 6 16z"/>
    <path fill="#FFF" d="M11.8 6.9c.6-.3 1.3-.5 2-.7v4.2h-2V6.9z"/>
    <path fill="#FFF" d="M6.2 13.9c.2-.7.4-1.4.7-2h10.3c1.5 0 2.7 1.2 2.7 2.7v2.7c0 1.5-1.2 2.7-2.7 2.7h-2.6c-1.5 0-2.7-1.2-2.7-2.7v-1.9h2v1.9c0 .4.3.7.7.7h2.6c.4 0 .7-.3.7-.7v-2.6c0-.4-.3-.7-.7-.7h-11z"/>
  </g>
</svg>